<?xml version="1.0" standalone="no"?>
<!DOCTYPE svg PUBLIC "-//W3C//DTD SVG 20010904//EN"
 "http://www.w3.org/TR/2001/REC-SVG-20010904/DTD/svg10.dtd">
<svg version="1.0" xmlns="http://www.w3.org/2000/svg"
 width="1250.000000pt" height="769.000000pt" viewBox="0 0 1250.000000 769.000000"
 preserveAspectRatio="xMidYMid meet">
<metadata>
Created by potrace 1.16, written by Peter Selinger 2001-2019
</metadata>
<g transform="translate(0.000000,769.000000) scale(0.100000,-0.100000)"
fill="#000000" stroke="none">
<path d="M0 3845 l0 -3845 6250 0 6251 0 -4 1318 c-3 1310 -3 1318 -25 1457
-71 439 -184 682 -364 780 -45 25 -67 30 -144 33 -80 4 -100 1 -175 -25 -237
-82 -506 -310 -877 -743 -292 -342 -534 -569 -828 -777 -422 -299 -936 -536
-1459 -674 -82 -21 -154 -39 -160 -39 -5 0 69 32 165 70 435 174 893 430 1254
699 435 325 759 658 1079 1107 393 552 693 799 951 782 222 -15 389 -236 496
-655 27 -108 73 -372 83 -478 2 -22 4 137 5 352 l2 392 -31 78 c-63 160 -168
301 -278 374 -70 46 -170 73 -276 73 -148 0 -281 -47 -440 -154 -146 -99 -378
-343 -520 -550 -33 -47 -67 -94 -77 -105 -9 -11 -52 -67 -94 -125 -74 -100
-224 -285 -294 -360 -18 -19 -47 -53 -66 -76 -18 -22 -100 -102 -181 -176
-413 -380 -766 -624 -1249 -866 -334 -167 -530 -243 -734 -282 -621 -122
-1321 -120 -1940 6 -337 68 -521 150 -691 310 -121 112 -323 330 -385 414
-173 235 -203 289 -257 470 -94 311 -110 639 -46 955 106 525 457 1032 1005
1450 54 42 128 102 163 133 35 31 72 62 82 67 25 14 193 168 268 245 239 244
441 558 521 805 83 261 83 533 0 768 -30 85 -102 225 -148 287 -100 135 -233
257 -341 314 l-69 36 -263 -1 c-258 -1 -262 -1 -179 -14 186 -30 353 -96 477
-189 145 -109 297 -302 359 -455 88 -217 90 -473 7 -706 -101 -281 -323 -586
-636 -873 -112 -104 -165 -147 -442 -368 -165 -131 -372 -332 -478 -464 -380
-473 -561 -1019 -519 -1568 14 -185 54 -389 111 -562 49 -151 33 -137 -63 57
-330 661 -351 1299 -61 1888 159 323 396 599 770 897 273 217 391 331 524 508
86 114 182 304 213 420 32 121 32 321 0 433 -77 269 -257 493 -557 692 -215
143 -448 242 -673 285 -101 20 -146 20 -2558 20 l-2454 0 0 -3845z"/>
</g>
</svg>
