<svg width="1170" height="720" viewBox="0 0 1170 720" fill="none" xmlns="http://www.w3.org/2000/svg">
<path d="M545 237C676.939 137.157 655.982 61.3774 607.199 21.2835C586.168 3.99842 557.959 0 530.736 0H0V720H1167C1167 658.094 1167.84 568.902 1168.51 507C1169.68 398.475 1137.5 254.5 1023.5 419.074C917.574 571.993 709.878 641.714 575.308 615.868C554.884 611.945 536.066 602.052 521.128 587.583C435.501 504.645 396.969 349.02 545 237Z" fill="#C894F9"/>
<path d="M518 218.5C679.2 96.5141 520.5 0 452 0H0.999904V720H1167C1167 663.393 1169.92 571.732 1168.73 515.138C1166.64 416.158 1143.65 302.043 1016 456.942C897.64 600.566 702.283 624.158 568.075 590.496C547.902 585.437 529.157 575.729 513.891 561.606C425.426 479.764 369.89 330.58 518 218.5Z" fill="url(#paint0_linear_23_28)"/>
<defs>
<linearGradient id="paint0_linear_23_28" x1="-82" y1="-58.9999" x2="1148" y2="785.5" gradientUnits="userSpaceOnUse">
<stop stop-color="#4E295D"/>
<stop offset="0.9999" stop-color="#8257A0"/>
<stop offset="1" stop-color="#C894F9"/>
</linearGradient>
</defs>
</svg>
