<svg width="744" height="693" viewBox="0 0 744 693" fill="none" xmlns="http://www.w3.org/2000/svg">
<path d="M299.639 41.2376L154.425 155.684C145.123 163.015 135.127 169.464 124.572 174.944L91.3697 192.183C-32.5786 256.536 -29.0164 431.124 97.4588 490.608C125.578 503.833 149.464 524.305 166.537 549.815L205.946 608.697C287.703 730.85 475.655 715.731 535.829 582.16L559.128 530.441C575.864 493.292 606.239 463.607 644.272 447.23C753.891 400.031 778.002 258.59 689.95 179.273L545.521 49.1691C476.913 -12.6333 372.276 -16.0087 299.639 41.2376Z" fill="url(#paint0_linear_31_49)" fill-opacity="0.5"/>
<path fill-rule="evenodd" clip-rule="evenodd" d="M545.202 49.5068C476.766 -12.1411 372.39 -15.5081 299.935 41.595L154.721 156.041C145.395 163.391 135.374 169.856 124.793 175.35L91.5907 192.588C-32.0172 256.765 -28.4648 430.874 97.663 490.194C125.86 503.455 149.811 523.984 166.931 549.563L206.34 608.446C287.892 730.294 475.375 715.212 535.398 581.975L558.697 530.256C575.48 493.002 605.941 463.233 644.083 446.81C753.391 399.744 777.433 258.704 689.631 179.61L545.202 49.5068ZM299.344 40.8801C372.162 -16.5093 477.061 -13.1255 545.84 48.8315L690.269 178.935C778.57 258.477 754.391 400.317 644.462 447.651C606.536 463.981 576.247 493.582 559.559 530.626L536.26 582.345C475.935 716.25 287.513 731.407 205.553 608.948L166.143 550.066C149.117 524.627 125.297 504.21 97.2545 491.022C-29.5679 431.375 -33.1399 256.307 91.1488 191.777L124.351 174.538C134.88 169.072 144.851 162.639 154.129 155.326L299.344 40.8801Z" fill="url(#paint1_linear_31_49)" fill-opacity="0.5"/>
<path d="M136.208 112.938L89.6085 141.171C43.7001 168.985 32.7955 229.608 66.2501 271.029C90.5624 301.131 92.2339 343.1 70.3891 374.954L65.963 381.408C20.8152 447.243 69.1457 535.619 150.297 535.619H214.694C257.156 535.619 297.305 555.164 322.998 588.17C369.229 647.558 456.512 658.963 516.783 613.119L549.579 588.173C559.727 580.454 571.153 574.488 583.364 570.535L625.431 556.915C683.055 538.259 701.925 467.87 661.052 424.045C633.729 394.749 631.806 350.558 656.485 319.105L673.725 297.133C705.026 257.239 706.175 202.125 676.563 161.022L638.988 108.864C610.541 69.3783 555.148 59.0277 513.778 85.4678C487.076 102.533 453.206 104.815 424.356 91.491L372.75 67.658C314.275 40.6523 245.693 44.853 191.133 78.7821L136.208 112.938Z" fill="url(#paint2_linear_31_49)" fill-opacity="0.5"/>
<defs>
<linearGradient id="paint0_linear_31_49" x1="372" y1="0" x2="372" y2="692.419" gradientUnits="userSpaceOnUse">
<stop stop-color="#4E295D"/>
<stop offset="1" stop-color="#A456C3"/>
</linearGradient>
<linearGradient id="paint1_linear_31_49" x1="372" y1="0" x2="372" y2="692.419" gradientUnits="userSpaceOnUse">
<stop stop-color="#4E295D"/>
<stop offset="1" stop-color="#A456C3"/>
</linearGradient>
<linearGradient id="paint2_linear_31_49" x1="411.5" y1="-18.9999" x2="421" y2="675" gradientUnits="userSpaceOnUse">
<stop stop-color="#4E295D"/>
<stop offset="1" stop-color="#A456C3"/>
</linearGradient>
</defs>
</svg>
