<svg width="1439" height="720" viewBox="0 0 1439 720" fill="none" xmlns="http://www.w3.org/2000/svg">
<path d="M671.918 237C834.582 137.157 808.746 61.3774 748.602 21.2835C722.673 3.99842 687.895 0 654.332 0H0V720H1438.77C1438.77 658.094 1437.26 535.902 1438.09 474C1439.53 365.475 1402.4 254.5 1261.85 419.074C1131.26 571.993 875.193 641.714 709.284 615.868C684.103 611.945 660.904 602.052 642.486 587.583C536.919 504.645 489.414 349.02 671.918 237Z" fill="#F1A0C5"/>
<path d="M638.63 218.5C837.37 96.5141 641.712 0 557.26 0H1.23276V720H1438.77C1438.77 663.393 1439.6 523.595 1438.13 467C1435.55 368.02 1409.98 302.043 1252.6 456.942C1106.68 600.566 865.829 624.158 700.366 590.496C675.496 585.437 652.386 575.729 633.564 561.606C524.498 479.764 456.029 330.58 638.63 218.5Z" fill="url(#paint0_linear_23_28)"/>
<defs>
<linearGradient id="paint0_linear_23_28" x1="-101.096" y1="-58.9999" x2="1198.79" y2="1041.32" gradientUnits="userSpaceOnUse">
<stop stop-color="#177A97"/>
<stop offset="0.9999" stop-color="#94D2E4"/>
<stop offset="1" stop-color="#94D2E4"/>
</linearGradient>
</defs>
</svg>
