<svg width="557" height="320" viewBox="0 0 557 320" fill="none" xmlns="http://www.w3.org/2000/svg">
<path d="M235.297 5.392L469.731 67.2441C521.947 81.0206 555.313 132.024 547.017 185.386C540.939 224.49 513.475 256.897 475.898 269.306L367.462 305.118C282.609 333.14 189.598 320.795 114.993 271.606L44.9954 225.455C35.1523 218.965 26.5337 210.787 19.5375 201.297C-16.581 152.305 -0.949665 82.6828 52.6456 53.8331L116.487 19.4679C152.873 -0.11825 195.341 -5.14962 235.297 5.392Z" fill="url(#paint0_linear_13_30)" fill-opacity="0.6"/>
<path d="M530.606 115.469L543.668 138.929C551.197 152.451 555.501 167.529 556.245 182.988C559.286 246.187 503.871 296.438 441.27 287.251L430.279 285.638C420.547 284.21 410.667 284.098 400.905 285.305L136.386 318.01C85.15 324.345 36.8365 292.733 22.1245 243.247C13.822 215.321 17.4175 185.205 32.0612 160.018L51.8162 126.039C80.2878 77.068 128.494 42.7527 184.087 31.8825L301.305 8.96279C392.736 -8.91464 485.286 34.0734 530.606 115.469Z" fill="url(#paint1_linear_13_30)" fill-opacity="0.5"/>
<defs>
<linearGradient id="paint0_linear_13_30" x1="470.7" y1="34.1596" x2="104.578" y2="297.12" gradientUnits="userSpaceOnUse">
<stop stop-color="#AF306A"/>
<stop offset="1" stop-color="#F1A0C5"/>
</linearGradient>
<linearGradient id="paint1_linear_13_30" x1="612.614" y1="30.4864" x2="203.614" y2="316.486" gradientUnits="userSpaceOnUse">
<stop offset="0.13" stop-color="#D52676"/>
<stop offset="1" stop-color="#F1A0C5"/>
</linearGradient>
</defs>
</svg>
